<?xml version="1.0" encoding="utf-8"?><svg width="34" height="27" fill="none" xmlns="http://www.w3.org/2000/svg" viewBox="0 0 34 27"><path d="M20.835.396l12.75 12.149c.131.125.236.274.307.438a1.294 1.294 0 010 1.034 1.348 1.348 0 01-.308.438l-12.75 12.15a1.454 1.454 0 01-1.001.395c-.376 0-.737-.142-1.003-.396a1.32 1.32 0 01-.415-.955c0-.358.15-.701.415-.955l10.333-9.844H1.417c-.376 0-.736-.142-1.002-.396A1.318 1.318 0 010 13.5c0-.358.15-.701.415-.954a1.453 1.453 0 011.002-.396h27.746L18.83 2.306a1.32 1.32 0 01-.415-.955c0-.359.15-.702.415-.955A1.454 1.454 0 0119.833 0c.376 0 .736.142 1.002.396z" fill="#fff"/></svg>